<svg width="128" height="128" viewBox="0 0 128 128" fill="none" xmlns="http://www.w3.org/2000/svg">
<path fill-rule="evenodd" clip-rule="evenodd" d="M87.1716 87.1716C88.7337 85.6095 91.2663 85.6095 92.8284 87.1716L116.828 111.172C118.391 112.734 118.391 115.266 116.828 116.828C115.266 118.391 112.734 118.391 111.172 116.828L87.1716 92.8284C85.6095 91.2663 85.6095 88.7337 87.1716 87.1716Z" fill="#FFC72F"/>
<path fill-rule="evenodd" clip-rule="evenodd" d="M60 26C41.2223 26 26 41.2223 26 60C26 78.7777 41.2223 94 60 94C78.7777 94 94 78.7777 94 60C94 41.2223 78.7777 26 60 26ZM18 60C18 36.804 36.804 18 60 18C83.196 18 102 36.804 102 60C102 83.196 83.196 102 60 102C36.804 102 18 83.196 18 60Z" fill="#FFC72F"/>
<path d="M45.278 59.3994C44.8628 58.4139 44.5336 57.3929 44.2942 56.3483C44.1053 55.3426 44.0076 54.3213 44.0027 53.2973C43.9493 50.5683 44.6981 47.8855 46.1525 45.5953C47.5856 43.3823 49.591 41.618 51.9462 40.4979C54.514 39.2414 57.3345 38.6169 60.1813 38.6747C63.1369 38.5841 66.0679 39.2492 68.7078 40.6095C70.956 41.7863 72.8329 43.5876 74.1222 45.806C75.4115 48.0245 76.0609 50.5697 75.9955 53.1485C76.0408 54.9023 75.7436 56.6479 75.121 58.2831C74.5524 59.6562 73.7506 60.9158 72.7525 62.0039C71.8331 62.9851 70.8199 63.8701 69.7281 64.6457L66.7038 66.8037C65.8459 67.4268 65.0631 68.1512 64.3717 68.9617C63.7563 69.7103 63.432 70.6638 63.4607 71.6407V73.0546H55.9544V71.4919C55.9142 70.0034 56.2136 68.5258 56.829 67.1758C57.3938 65.9939 58.1586 64.9232 59.0882 64.0131C60.0002 63.112 60.9744 62.2789 62.0032 61.5202C63.0599 60.776 64.0437 59.9947 64.9547 59.2505C65.8316 58.5032 66.5932 57.6251 67.2138 56.646C67.8127 55.6108 68.1158 54.4249 68.0884 53.2229C68.1084 51.9227 67.7943 50.6398 67.1775 49.5021C66.5198 48.3607 65.5599 47.4321 64.4081 46.8232C63.0569 46.1171 61.5527 45.7715 60.0355 45.8185C58.5437 45.79 57.0637 46.0948 55.6993 46.7115C54.4932 47.2738 53.4602 48.1615 52.7115 49.2789C51.9654 50.4507 51.5843 51.8257 51.6183 53.2229C51.6317 54.4145 51.8795 55.5913 52.3471 56.6832L45.278 59.3994ZM55.2986 76.701H64.4446V85.3332H55.2986V76.701Z" fill="#FFC72F"/>
</svg>
