<svg width="404" height="232" viewBox="0 0 404 232" fill="none" xmlns="http://www.w3.org/2000/svg">
<path opacity="0.5" d="M268.55 2.31L341.83 44.62L342.83 45.2L343.83 44.62L357.6 36.67L366.6 41.88L288.9 86.75L244.9 61.35L243.9 60.77L242.9 61.35L217.16 76.21L214.16 77.94L217.16 79.68L242.16 94.1L229.37 101.49L226.37 103.22L229.37 104.95L279.9 134.13L280.9 134.71L281.9 134.13L379.17 78L383.3 80.38L346.93 101.38L343.93 103.11L346.93 104.84L400.31 135.66L399.79 135.98L391.34 140.89L371.93 129.69L370.93 129.11L369.93 129.69L347.73 142.51L344.73 144.24L347.73 145.97L365.22 156.07L357.77 160.4L338.26 149.13L337.26 148.55L336.26 149.13L224.19 213.83L211.19 221.35L205.34 224.72C204.56 224.66 203.77 224.63 202.99 224.63C200.442 224.606 197.904 224.943 195.45 225.63L205.05 220.08L208.05 218.35L205.05 216.62L118.5 166.62L117.5 166.04L116.5 166.62L61.5 198.35L52.5 193.14L61.71 187.83L64.71 186.09L61.71 184.36L4 151.07L13 145.85L72.76 180.35L73.76 180.93L74.76 180.35L174.56 122.73L177.56 121L174.56 119.27L122.33 89.12L121.33 88.55L120.33 89.12L65.61 120.72L24.92 97.22L33.92 92L64.63 109.73L65.63 110.31L66.63 109.73L155.9 58.18L158.9 56.45L155.9 54.71L125.9 37.42L161.34 17C163.181 16.5492 164.951 15.8458 166.6 14.91L176.32 9.26C179.393 7.6189 182.837 6.7991 186.32 6.88C189.079 6.84927 191.819 7.33426 194.4 8.31L147 35.69L144 37.42L147 39.15L204.18 72.15L205.18 72.73L206.18 72.15L243.94 50.35L287.94 75.75L288.94 76.33L289.94 75.75L330.86 52.13L333.86 50.4L330.86 48.66L259.56 7.53L268.56 2.31M181.68 118.61L182.68 118.03L221.13 95.84L224.13 94.1L221.13 92.37L168.91 62.23L167.91 61.65L166.91 62.23L128.46 84.43L125.46 86.16L128.46 87.89L180.67 118L181.67 118.58M234.85 161.26L235.51 160.88L273.76 138.8L276.76 137.06L273.76 135.33L223.23 106.16L222.23 105.58L221.23 106.16L159 142.09L154.44 144.72L159.59 145.78L234.06 161.14L234.81 161.29M340.6 141.83L341.6 141.25L363.8 128.44L366.8 126.7L363.8 124.97L335.91 108.87L334.91 108.29L333.91 108.87L311.71 121.69L308.71 123.42L311.71 125.15L339.6 141.25L340.6 141.83ZM235.6 165.66L149.84 148L149.1 147.84L148.44 148.22L129.5 159.14L126.5 160.88L129.5 162.61L216.06 212.61L217.06 213.19L218.06 212.61L330.13 147.91L333.13 146.18L330.13 144.44L302.24 128.34L301.24 127.77L300.24 128.34L235.55 165.69M268.54 0L255.54 7.54L329.79 50.41L288.9 74L243.9 48L205.15 70.43L148 37.42L198.58 8.2L197.39 7.51C194.008 5.70618 190.222 4.79414 186.39 4.86C182.557 4.78387 178.768 5.69653 175.39 7.51L165.66 13.16C164.095 14.0433 162.411 14.6967 160.66 15.1L121.94 37.42L154.94 56.42L65.61 108L33.9 89.69L20.9 97.23L65.61 123L121.33 90.84L173.54 121L73.74 178.62L13 143.54L0 151.08L60.72 186.08L48.51 193.13L61.51 200.65L117.51 168.34L204.06 218.34L180.64 231.86H181C184.831 231.938 188.618 231.033 192 229.23C195.379 227.42 199.167 226.51 203 226.59C203.935 226.586 204.87 226.633 205.8 226.73L212.2 223.04L225.2 215.53L337.27 150.82L357.79 162.67L369.21 156L348.73 144.18L370.93 131.36L391.34 143.14L400.8 137.65C401.901 137.024 402.889 136.216 403.72 135.26L347.93 103.05L386.93 80.54C386.183 79.8003 385.343 79.1616 384.43 78.64L379.19 75.64L280.89 132.4L230.36 103.22L246.15 94.1L218.15 77.94L243.9 63.08L288.9 89.08L370.62 41.9L357.62 34.38L342.85 42.91L268.54 0ZM181.67 116.3L129.46 86.16L167.91 64L220.12 94.1L181.67 116.3ZM234.51 159.18L160 143.82L222.19 107.92L272.72 137.09L234.47 159.18H234.51ZM340.6 139.52L312.71 123.42L334.91 110.6L362.8 126.7L340.6 139.52ZM235.89 167.77L301.24 130L329.13 146.11L217.06 210.81L130.5 160.81L149.44 149.87L235.89 167.7V167.77Z" fill="white"/>
<path d="M121.39 119.36H104.7C104.115 119.36 103.64 119.834 103.64 120.42V148.12C103.64 148.705 104.115 149.18 104.7 149.18H121.39C121.975 149.18 122.45 148.705 122.45 148.12V120.42C122.45 119.834 121.975 119.36 121.39 119.36Z" fill="url(#paint0_linear_101_665)"/>
<path d="M109 133.57C108.889 133.305 108.802 133.031 108.74 132.75C108.688 132.48 108.661 132.205 108.66 131.93C108.645 131.197 108.851 130.476 109.25 129.86C109.643 129.265 110.194 128.791 110.84 128.49C111.545 128.153 112.319 127.985 113.1 128C113.911 127.976 114.716 128.155 115.44 128.52C116.064 128.832 116.588 129.314 116.95 129.91C117.308 130.515 117.491 131.207 117.48 131.91C117.493 132.386 117.408 132.859 117.23 133.3C117.08 133.67 116.863 134.009 116.59 134.3C116.335 134.564 116.057 134.805 115.76 135.02L114.93 135.59C114.692 135.755 114.477 135.95 114.29 136.17C114.121 136.371 114.032 136.628 114.04 136.89V137.27H112V136.85C111.989 136.45 112.071 136.053 112.24 135.69C112.397 135.374 112.606 135.086 112.86 134.84C113.11 134.598 113.378 134.374 113.66 134.17C113.95 133.97 114.22 133.76 114.47 133.56C114.71 133.359 114.919 133.123 115.09 132.86C115.254 132.582 115.338 132.263 115.33 131.94C115.336 131.589 115.246 131.244 115.07 130.94C114.894 130.634 114.633 130.384 114.32 130.22C113.949 130.032 113.536 129.939 113.12 129.95C112.711 129.943 112.304 130.024 111.93 130.19C111.601 130.344 111.318 130.582 111.11 130.88C110.905 131.195 110.801 131.565 110.81 131.94C110.814 132.261 110.882 132.577 111.01 132.87L109 133.57ZM111.75 138.22H114.26V140.54H111.75V138.22Z" fill="white"/>
<path d="M109.32 150.35H116.63L112.97 152.52L109.32 150.35Z" fill="white"/>
<path d="M270.66 145.34H253.97C253.385 145.34 252.91 145.814 252.91 146.4V174.1C252.91 174.685 253.385 175.16 253.97 175.16H270.66C271.245 175.16 271.72 174.685 271.72 174.1V146.4C271.72 145.814 271.245 145.34 270.66 145.34Z" fill="url(#paint1_linear_101_665)"/>
<path d="M258.25 159.55C258.136 159.285 258.046 159.011 257.98 158.73C257.928 158.46 257.901 158.185 257.9 157.91C257.885 157.177 258.091 156.456 258.49 155.84C258.883 155.245 259.434 154.771 260.08 154.47C260.785 154.133 261.559 153.965 262.34 153.98C263.151 153.956 263.956 154.135 264.68 154.5C265.297 154.817 265.812 155.301 266.166 155.897C266.52 156.493 266.698 157.177 266.68 157.87C266.692 158.342 266.611 158.811 266.44 159.25C266.284 159.619 266.064 159.958 265.79 160.25C265.538 160.514 265.26 160.752 264.96 160.96L264.13 161.54C263.895 161.708 263.68 161.902 263.49 162.12C263.321 162.321 263.232 162.578 263.24 162.84V163.22H261.18V162.8C261.169 162.4 261.251 162.003 261.42 161.64C261.575 161.323 261.785 161.035 262.04 160.79C262.29 160.548 262.558 160.324 262.84 160.12C263.13 159.92 263.4 159.71 263.65 159.51C263.891 159.309 264.1 159.073 264.27 158.81C264.434 158.532 264.518 158.213 264.51 157.89C264.516 157.541 264.429 157.196 264.26 156.89C264.08 156.583 263.816 156.334 263.5 156.17C263.129 155.98 262.716 155.888 262.3 155.9C261.891 155.893 261.484 155.974 261.11 156.14C260.779 156.291 260.496 156.53 260.29 156.83C260.085 157.145 259.981 157.515 259.99 157.89C259.994 158.21 260.062 158.527 260.19 158.82L258.25 159.55ZM261 164.2H263.51V166.52H261V164.2Z" fill="white"/>
<path d="M258.59 176.33H265.9L262.25 178.5L258.59 176.33Z" fill="white"/>
<path d="M177.79 11.79H161.1C160.515 11.79 160.04 12.2646 160.04 12.85V40.55C160.04 41.1355 160.515 41.61 161.1 41.61H177.79C178.375 41.61 178.85 41.1355 178.85 40.55V12.85C178.85 12.2646 178.375 11.79 177.79 11.79Z" fill="url(#paint2_linear_101_665)"/>
<path d="M165.37 25.9999C165.259 25.7349 165.172 25.4604 165.11 25.1799C165.058 24.9096 165.031 24.6351 165.03 24.3599C165.015 23.6265 165.221 22.9054 165.62 22.2899C166.013 21.6952 166.564 21.221 167.21 20.9199C167.915 20.5822 168.689 20.4144 169.47 20.4299C170.281 20.4056 171.086 20.5843 171.81 20.9499C172.434 21.2616 172.958 21.7435 173.32 22.3399C173.678 22.9449 173.861 23.6371 173.85 24.3399C173.863 24.8155 173.778 25.2888 173.6 25.7299C173.45 26.0996 173.233 26.4386 172.96 26.7299C172.705 26.994 172.427 27.235 172.13 27.4499L171.3 28.0199C171.062 28.1847 170.847 28.3797 170.66 28.5999C170.491 28.8011 170.402 29.0574 170.41 29.3199V29.6999H168.35V29.2799C168.339 28.8799 168.421 28.4827 168.59 28.1199C168.747 27.8033 168.956 27.5159 169.21 27.2699C169.46 27.0277 169.728 26.8038 170.01 26.5999C170.3 26.3999 170.57 26.1899 170.82 25.9899C171.063 25.7914 171.272 25.555 171.44 25.2899C171.604 25.0117 171.688 24.693 171.68 24.3699C171.686 24.0192 171.596 23.6734 171.42 23.3699C171.246 23.0614 170.985 22.8109 170.67 22.6499C170.299 22.4602 169.886 22.3673 169.47 22.3799C169.061 22.3723 168.654 22.4542 168.28 22.6199C167.951 22.774 167.668 23.0119 167.46 23.3099C167.255 23.6249 167.151 23.9944 167.16 24.3699C167.164 24.6902 167.232 25.0065 167.36 25.2999L165.37 25.9999ZM168.12 30.6499H170.63V32.9999H168.12V30.6499Z" fill="white"/>
<path d="M165.72 42.7798H173.03L169.38 44.9498L165.72 42.7798Z" fill="white"/>
<path d="M311.65 56.9702H294.96C294.375 56.9702 293.9 57.4448 293.9 58.0302V85.7302C293.9 86.3156 294.375 86.7902 294.96 86.7902H311.65C312.235 86.7902 312.71 86.3156 312.71 85.7302V58.0302C312.71 57.4448 312.235 56.9702 311.65 56.9702Z" fill="url(#paint3_linear_101_665)"/>
<path d="M299.24 71.1801C299.125 70.9167 299.037 70.6419 298.98 70.3601C298.923 70.0905 298.896 69.8155 298.9 69.5401C298.882 68.8076 299.084 68.0865 299.48 67.4701C299.873 66.8753 300.424 66.4011 301.07 66.1001C301.779 65.7637 302.556 65.596 303.34 65.6101C304.151 65.5858 304.956 65.7645 305.68 66.1301C306.302 66.4449 306.825 66.926 307.19 67.5201C307.548 68.1251 307.731 68.8173 307.72 69.5201C307.736 69.9543 307.665 70.3873 307.512 70.7941C307.359 71.2009 307.127 71.5734 306.83 71.8901C306.573 72.1518 306.295 72.3925 306 72.6101L305.17 73.1801C304.932 73.3476 304.713 73.5422 304.52 73.7601C304.355 73.9635 304.267 74.2183 304.27 74.4801V74.8601H302.27V74.4401C302.259 74.0401 302.341 73.6429 302.51 73.2801C302.667 72.9635 302.876 72.676 303.13 72.4301C303.38 72.1879 303.648 71.964 303.93 71.7601C304.22 71.5601 304.48 71.3501 304.73 71.1501C304.976 70.9543 305.185 70.7175 305.35 70.4501C305.518 70.1729 305.604 69.8541 305.6 69.5301C305.606 69.1793 305.516 68.8336 305.34 68.5301C305.164 68.2237 304.903 67.9739 304.59 67.8101C304.215 67.6215 303.799 67.5288 303.38 67.5401C302.974 67.5323 302.571 67.6142 302.2 67.7801C301.871 67.9341 301.588 68.1721 301.38 68.4701C301.175 68.785 301.071 69.1546 301.08 69.5301C301.065 69.6831 301.065 69.8371 301.08 69.9901C301.112 70.1532 301.166 70.3112 301.24 70.4601L299.24 71.1801ZM302 75.8301H304.51V78.1501H302V75.8301Z" fill="white"/>
<path d="M299.58 87.96H306.9L303.24 90.13L299.58 87.96Z" fill="white"/>
<path d="M224.75 83.79H208.06C207.475 83.79 207 84.2646 207 84.85V112.55C207 113.135 207.475 113.61 208.06 113.61H224.75C225.335 113.61 225.81 113.135 225.81 112.55V84.85C225.81 84.2646 225.335 83.79 224.75 83.79Z" fill="url(#paint4_linear_101_665)"/>
<path d="M212.33 98.0001C212.218 97.7321 212.131 97.4543 212.07 97.1701C212.018 96.9032 211.991 96.632 211.99 96.3601C211.972 95.6276 212.174 94.9065 212.57 94.2901C212.967 93.6964 213.516 93.2198 214.16 92.9101C214.871 92.5815 215.647 92.4174 216.43 92.4301C217.24 92.408 218.043 92.583 218.77 92.9401C219.386 93.2599 219.9 93.7462 220.254 94.3437C220.608 94.9412 220.786 95.626 220.77 96.3201C220.786 96.7543 220.715 97.1873 220.562 97.5941C220.409 98.0009 220.178 98.3734 219.88 98.6901C219.626 98.9515 219.348 99.1891 219.05 99.4001L218.22 99.9801C217.98 100.142 217.764 100.337 217.58 100.56C217.411 100.761 217.322 101.018 217.33 101.28V101.66H215.27V101.24C215.259 100.84 215.341 100.443 215.51 100.08C215.665 99.7624 215.875 99.4747 216.13 99.2301C216.378 98.985 216.645 98.7609 216.93 98.5601C217.22 98.3601 217.48 98.1501 217.74 97.9401C217.982 97.7437 218.189 97.5069 218.35 97.2401C218.522 96.9685 218.609 96.6516 218.6 96.3301C218.606 95.9793 218.516 95.6336 218.34 95.3301C218.164 95.0237 217.903 94.7739 217.59 94.6101C217.215 94.4215 216.799 94.3288 216.38 94.3401C215.974 94.3335 215.571 94.4154 215.2 94.5801C214.867 94.7276 214.582 94.9669 214.38 95.2701C214.175 95.585 214.071 95.9546 214.08 96.3301C214.065 96.4831 214.065 96.6371 214.08 96.7901C214.114 96.9528 214.167 97.1107 214.24 97.2601L212.33 98.0001ZM215.08 102.65H217.59V105H215.08V102.65Z" fill="white"/>
<path d="M212.68 114.78H219.99L216.33 116.95L212.68 114.78Z" fill="white"/>
<defs>
<linearGradient id="paint0_linear_101_665" x1="104.43" y1="119.35" x2="121.65" y2="149.19" gradientUnits="userSpaceOnUse">
<stop stop-color="#FFC72F"/>
<stop offset="1" stop-color="#016B69"/>
</linearGradient>
<linearGradient id="paint1_linear_101_665" x1="253.7" y1="145.33" x2="270.92" y2="175.17" gradientUnits="userSpaceOnUse">
<stop stop-color="#FFC72F"/>
<stop offset="1" stop-color="#016B69"/>
</linearGradient>
<linearGradient id="paint2_linear_101_665" x1="160.83" y1="11.78" x2="178.05" y2="41.62" gradientUnits="userSpaceOnUse">
<stop stop-color="#FFC72F"/>
<stop offset="1" stop-color="#016B69"/>
</linearGradient>
<linearGradient id="paint3_linear_101_665" x1="294.7" y1="56.9602" x2="311.92" y2="86.8002" gradientUnits="userSpaceOnUse">
<stop stop-color="#FFC72F"/>
<stop offset="1" stop-color="#016B69"/>
</linearGradient>
<linearGradient id="paint4_linear_101_665" x1="207.79" y1="83.78" x2="225.01" y2="113.61" gradientUnits="userSpaceOnUse">
<stop stop-color="#FFC72F"/>
<stop offset="1" stop-color="#016B69"/>
</linearGradient>
</defs>
</svg>
