<svg width="36" height="36" viewBox="0 0 36 36" fill="none" xmlns="http://www.w3.org/2000/svg">
<path d="M21.408 15.6675L27 3M13.974 15.948L7.5 3M19.1415 15.072L13.2525 3M21.54 3L19.98 6.75M9 24C9 26.3869 9.94821 28.6761 11.636 30.364C13.3239 32.0518 15.6131 33 18 33C20.3869 33 22.6761 32.0518 24.364 30.364C26.0518 28.6761 27 26.3869 27 24C27 21.6131 26.0518 19.3239 24.364 17.636C22.6761 15.9482 20.3869 15 18 15C15.6131 15 13.3239 15.9482 11.636 17.636C9.94821 19.3239 9 21.6131 9 24Z" stroke="white" stroke-width="1.5" stroke-linecap="round" stroke-linejoin="round"/>
<path d="M16.425 26.8026L18 25.8026L19.575 26.8158L19.1625 24.9211L20.55 23.6579L18.725 23.4868L18 21.6974L17.275 23.4737L15.45 23.6447L16.8375 24.9211L16.425 26.8026ZM14.9125 29L15.725 25.3026L13 22.8158L16.6 22.4868L18 19L19.4 22.4868L23 22.8158L20.275 25.3026L21.0875 29L18 27.0395L14.9125 29Z" fill="white"/>
</svg>
