<svg width="32" height="32" viewBox="0 0 32 32" fill="none" xmlns="http://www.w3.org/2000/svg">
<path d="M30.4568 31.1626H1.54335C1.15349 31.1626 0.837463 30.8465 0.837463 30.4567V1.54328C0.837463 1.15343 1.15349 0.837402 1.54335 0.837402H30.4568C30.8466 0.837402 31.1627 1.15343 31.1627 1.54328V30.4567C31.1627 30.8465 30.8466 31.1626 30.4568 31.1626ZM2.24923 29.7508H29.7509V2.24917H2.24923V29.7508Z" fill="white"/>
<path d="M17.0578 27.3964H14.237C13.8472 27.3964 13.5311 27.0803 13.5311 26.6905V24.1099C13.5311 23.7201 13.8472 23.4041 14.237 23.4041H17.0578C17.4476 23.4041 17.7637 23.7201 17.7637 24.1099V26.6906C17.7637 27.0804 17.4476 27.3964 17.0578 27.3964ZM14.9429 25.9846H16.3519V24.8158H14.9429V25.9846Z" fill="white"/>
<path d="M17.0578 21.9949H14.237C13.8472 21.9949 13.5312 21.6788 13.5312 21.2891V14.237C13.5312 13.8471 13.8472 13.5311 14.237 13.5311H19.878V8.59601H12.1221V11.6186C12.1221 12.0085 11.8061 12.3245 11.4163 12.3245H8.59541C8.20555 12.3245 7.88953 12.0085 7.88953 11.6186V5.06929C7.88953 4.67943 8.20555 4.3634 8.59541 4.3634H23.4047C23.7945 4.3634 24.1106 4.67943 24.1106 5.06929V17.0577C24.1106 17.4475 23.7945 17.7636 23.4047 17.7636H17.7638V21.2889C17.7637 21.6788 17.4477 21.9949 17.0578 21.9949ZM14.9429 20.5832H16.3519V17.0578C16.3519 16.6681 16.668 16.352 17.0578 16.352H22.6988V5.77524H9.30129V10.9128H10.7104V7.8902C10.7104 7.50034 11.0264 7.18432 11.4163 7.18432H20.5839C20.9737 7.18432 21.2898 7.50034 21.2898 7.8902V14.2371C21.2898 14.6269 20.9737 14.943 20.5839 14.943H14.9429V20.5832Z" fill="white"/>
</svg>
