<svg width="35" height="30" viewBox="0 0 35 30" fill="none" xmlns="http://www.w3.org/2000/svg">
<path fill-rule="evenodd" clip-rule="evenodd" d="M15.7737 0.30633C16.1822 0.104815 16.6316 0 17.0871 0C17.5426 0 17.992 0.104815 18.4005 0.30633L18.4007 0.306426L31.8456 6.94233C31.8463 6.94267 31.847 6.94301 31.8477 6.94335C32.5436 7.28384 33.1305 7.81206 33.5421 8.46842C33.9542 9.12543 34.1742 9.88463 34.1773 10.6602L34.1773 10.6645V24.8737C34.1773 27.1821 32.2855 29.03 29.981 29.03H4.19635C1.89177 29.03 0 27.1821 0 24.8737V10.6645L6.6063e-06 10.6607C0.00272003 9.8856 0.222115 9.12671 0.63341 8.46974C1.04442 7.81322 1.6307 7.28462 2.32611 6.94356C2.32659 6.94333 2.32707 6.94309 2.32755 6.94286L15.7735 0.306426L15.7737 0.30633ZM16.7274 2.23899C16.7273 2.23902 16.7273 2.23905 16.7272 2.23908L3.27859 8.87679L3.27579 8.87817C2.94066 9.04237 2.65813 9.29701 2.4601 9.61333C2.26236 9.92917 2.15675 10.2939 2.15513 10.6665V24.8737C2.15513 25.9658 3.05579 26.8749 4.19635 26.8749H29.981C31.1215 26.8749 32.0222 25.9658 32.0222 24.8737V10.6667C32.0203 10.294 31.9144 9.92923 31.7164 9.61348C31.518 9.29714 31.235 9.04262 30.8995 8.87869L30.8956 8.87679L17.447 2.23908C17.447 2.23905 17.4469 2.23902 17.4468 2.23899C17.335 2.18382 17.2119 2.15513 17.0871 2.15513C16.9624 2.15513 16.8393 2.18382 16.7274 2.23899Z" fill="white"/>
<path fill-rule="evenodd" clip-rule="evenodd" d="M1.24381 8.83095C1.60252 8.35609 2.27827 8.26193 2.75313 8.62064L2.10363 9.48046L1.45412 10.3403C0.979257 9.98157 0.885095 9.30582 1.24381 8.83095ZM13.4517 16.7023C15.094 17.9426 16.1567 18.3421 17.0638 18.3195C17.9871 18.2964 18.9999 17.8335 20.5439 16.7012L31.0012 8.62752C31.4723 8.26383 32.149 8.35088 32.5127 8.82194C32.8763 9.293 32.7893 9.96971 32.3182 10.3334L21.8505 18.4151C21.8436 18.4204 21.8366 18.4257 21.8296 18.4308C20.2214 19.6115 18.7456 20.4333 17.1176 20.4739C15.4712 20.515 13.9181 19.7552 12.1529 18.4221L12.1528 18.422L1.4542 10.3403C1.45415 10.3403 1.45412 10.3403 2.10363 9.48046C2.75313 8.62064 2.75316 8.62066 2.75321 8.62069L13.4517 16.7023Z" fill="white"/>
<path d="M13.3121 9.59747C13.2133 9.36504 13.1349 9.12424 13.0779 8.87786C13.0329 8.64067 13.0096 8.39979 13.0084 8.15827C12.9957 7.51461 13.1741 6.88187 13.5204 6.34171C13.8616 5.81977 14.3391 5.40364 14.9 5.13945C15.5114 4.84311 16.1831 4.69583 16.8609 4.70944C17.5648 4.68809 18.2627 4.84495 18.8913 5.16578C19.4266 5.44333 19.8736 5.86819 20.1806 6.39141C20.4876 6.91464 20.6422 7.51494 20.6267 8.12316C20.6375 8.53682 20.5667 8.94852 20.4184 9.3342C20.283 9.65805 20.0921 9.95514 19.8544 10.2118C19.6355 10.4432 19.3942 10.6519 19.1343 10.8348L18.4141 11.3438C18.2098 11.4908 18.0234 11.6616 17.8588 11.8528C17.7122 12.0293 17.635 12.2542 17.6419 12.4846V12.8181H15.8544V12.4496C15.8448 12.0985 15.9162 11.75 16.0627 11.4316C16.1972 11.1528 16.3793 10.9003 16.6007 10.6856C16.8178 10.4731 17.0498 10.2766 17.2948 10.0977C17.5464 9.92216 17.7807 9.73787 17.9976 9.56236C18.2064 9.38609 18.3878 9.17901 18.5356 8.94807C18.6782 8.7039 18.7503 8.42422 18.7438 8.14072C18.7486 7.83405 18.6738 7.53148 18.5269 7.26315C18.3703 6.99394 18.1417 6.77492 17.8675 6.63131C17.5457 6.46479 17.1875 6.38328 16.8262 6.39436C16.471 6.38764 16.1186 6.45952 15.7937 6.60498C15.5065 6.7376 15.2605 6.94696 15.0822 7.2105C14.9046 7.48688 14.8138 7.81117 14.8219 8.14072C14.8251 8.42177 14.8841 8.69932 14.9954 8.95686L13.3121 9.59747ZM15.6983 13.6781H17.8761V15.7141H15.6983V13.6781Z" fill="white"/>
</svg>
