<svg width="28" height="32" viewBox="0 0 28 32" fill="none" xmlns="http://www.w3.org/2000/svg">
<path d="M11 3.50001C10.575 3.50001 10.2185 3.35601 9.9305 3.06801C9.6425 2.78001 9.499 2.42401 9.5 2.00001C9.5 1.57501 9.644 1.21851 9.932 0.930505C10.22 0.642505 10.576 0.499005 11 0.500005H17C17.425 0.500005 17.7815 0.644005 18.0695 0.932005C18.3575 1.22001 18.501 1.57601 18.5 2.00001C18.5 2.42501 18.356 2.78151 18.068 3.06951C17.78 3.35751 17.424 3.50101 17 3.50001H11ZM14 20C14.425 20 14.7815 19.856 15.0695 19.568C15.3575 19.28 15.501 18.924 15.5 18.5V12.5C15.5 12.075 15.356 11.7185 15.068 11.4305C14.78 11.1425 14.424 10.999 14 11C13.575 11 13.2185 11.144 12.9305 11.432C12.6425 11.72 12.499 12.076 12.5 12.5V18.5C12.5 18.925 12.644 19.2815 12.932 19.5695C13.22 19.8575 13.576 20.001 14 20ZM14 32C12.15 32 10.406 31.6435 8.768 30.9305C7.13 30.2175 5.699 29.249 4.475 28.025C3.25 26.8 2.281 25.3685 1.568 23.7305C0.855002 22.0925 0.499002 20.349 0.500002 18.5C0.500002 16.65 0.856502 14.906 1.5695 13.268C2.2825 11.63 3.251 10.199 4.475 8.97501C5.7 7.75001 7.1315 6.78101 8.7695 6.06801C10.4075 5.35501 12.151 4.99901 14 5.00001C15.55 5.00001 17.0375 5.25001 18.4625 5.75001C19.8875 6.25001 21.225 6.97501 22.475 7.92501L23.5625 6.83751C23.8375 6.56251 24.175 6.42501 24.575 6.42501C24.975 6.42501 25.325 6.57501 25.625 6.87501C25.9 7.15001 26.0375 7.50001 26.0375 7.92501C26.0375 8.35001 25.9 8.70001 25.625 8.97501L24.575 10.025C25.525 11.275 26.25 12.6125 26.75 14.0375C27.25 15.4625 27.5 16.95 27.5 18.5C27.5 20.35 27.1435 22.094 26.4305 23.732C25.7175 25.37 24.749 26.801 23.525 28.025C22.3 29.25 20.8685 30.219 19.2305 30.932C17.5925 31.645 15.849 32.001 14 32ZM14 29C16.9 29 19.375 27.975 21.425 25.925C23.475 23.875 24.5 21.4 24.5 18.5C24.5 15.6 23.475 13.125 21.425 11.075C19.375 9.02501 16.9 8.00001 14 8.00001C11.1 8.00001 8.625 9.02501 6.575 11.075C4.525 13.125 3.5 15.6 3.5 18.5C3.5 21.4 4.525 23.875 6.575 25.925C8.625 27.975 11.1 29 14 29Z" fill="white"/>
</svg>
