<svg width="109" height="109" viewBox="0 0 109 109" fill="none" xmlns="http://www.w3.org/2000/svg">
<path d="M37.4688 61.3125L42.2716 66.1153L51.0938 57.3272V98.7812H57.9062V57.3272L66.7284 66.1153L71.5312 61.3125L54.5 44.2812L37.4688 61.3125Z" fill="#AFAFAF"/>
<path d="M80.0469 74.9375H78.3438V68.125H80.0469C84.1122 68.2876 88.0755 66.8287 91.0651 64.0691C94.0546 61.3095 95.8255 57.4753 95.9881 53.41C96.1507 49.3448 94.6918 45.3814 91.9322 42.3918C89.1726 39.4023 85.3384 37.6314 81.2731 37.4688H78.3438L78.0031 34.6757C77.2474 28.9411 74.4329 23.6767 70.0839 19.8632C65.7349 16.0497 60.1479 13.9471 54.3638 13.9471C48.5796 13.9471 42.9926 16.0497 38.6436 19.8632C34.2946 23.6767 31.4801 28.9411 30.7244 34.6757L30.6563 37.4688H27.7269C23.6616 37.6314 19.8274 39.4023 17.0678 42.3918C14.3082 45.3814 12.8493 49.3448 13.0119 53.41C13.1745 57.4753 14.9454 61.3095 17.9349 64.0691C20.9245 66.8287 24.8879 68.2876 28.9531 68.125H30.6563V74.9375H28.9531C23.4909 74.9029 18.2342 72.8504 14.1938 69.1745C10.1534 65.4986 7.6144 60.4588 7.06501 55.0242C6.51563 49.5895 7.99463 44.1436 11.2176 39.7334C14.4407 35.3233 19.1802 32.2602 24.525 31.1332C25.9955 24.2747 29.7735 18.128 35.2285 13.7186C40.6835 9.30919 47.4857 6.90381 54.5 6.90381C61.5143 6.90381 68.3165 9.30919 73.7715 13.7186C79.2265 18.128 83.0045 24.2747 84.475 31.1332C89.8198 32.2602 94.5593 35.3233 97.7824 39.7334C101.005 44.1436 102.484 49.5895 101.935 55.0242C101.386 60.4588 98.8466 65.4986 94.8062 69.1745C90.7658 72.8504 85.5091 74.9029 80.0469 74.9375Z" fill="#AFAFAF"/>
</svg>
