<svg width="250" height="80" viewBox="0 0 250 80" fill="none" xmlns="http://www.w3.org/2000/svg">
<path d="M202.508 44.1954C203.217 41.1299 204.925 38.1744 206.852 35.7183C207.549 34.8312 209.553 33.426 209.441 32.2031C209.317 30.8165 207.217 29.1646 206.415 28.0682C204.664 25.6805 203.375 22.87 202.639 20.0057C202.407 19.1041 201.607 17.0314 202.121 16.1671C202.612 15.3381 204.597 15.6262 205.404 15.6821C207.557 15.8293 209.738 16.1609 211.812 16.7578C212.807 17.0439 214.283 17.8688 215.319 17.6574C216.756 17.3651 218.105 14.6313 219.069 13.5971C221.427 11.0643 224.387 8.8611 227.527 7.39367C226.8 5.67339 225.251 4.25156 223.805 3.11161C215.69 -3.29283 202.89 0.653465 200.009 10.7016C198.543 15.8169 199.816 21.5394 202.15 26.2091C202.827 27.5666 203.646 28.9201 204.554 30.1367C204.975 30.7004 205.839 31.4466 205.839 32.2052C205.839 33.0695 204.724 34.0374 204.239 34.6861C202.776 36.6385 201.594 38.8127 200.734 41.0947C200.506 41.6958 199.801 43.0181 200.247 43.6295C200.637 44.1581 201.913 44.1187 202.508 44.1954ZM203.13 16.9029C203.205 20.4699 207.379 19.4108 210.16 20.1031C211.922 20.5425 215.24 22.7996 216.94 22.412C218.177 22.1301 219.682 18.5362 220.515 17.5247C223.268 14.1878 226.553 12.2208 230.217 10.0819C230.922 12.6602 231.958 15.0334 232.251 17.732C232.429 19.3507 231.971 22.0203 232.617 23.4752C232.935 24.1862 233.905 24.3002 234.562 24.5261C236.211 25.1002 237.801 25.7862 239.316 26.6526C241.076 27.6578 242.767 28.8144 244.278 30.1719C244.771 30.6155 245.551 31.7243 246.328 31.5129C247.229 31.2684 247.799 29.6579 248.143 28.8973C249.449 25.9976 250.127 22.7519 249.681 19.5932C248.529 11.398 241.132 6.23093 233.115 6.79261C227.863 7.16154 223.212 10.8467 219.676 14.4241C218.635 15.479 217.176 18.6087 215.827 19.0647C214.907 19.3756 212.965 18.1631 212.028 17.9144C209.039 17.1247 206.202 16.9029 203.13 16.9029ZM227.32 12.5608C227.834 16.0531 228.851 19.073 228.764 22.6918C228.739 23.6576 227.904 25.9064 228.684 26.6505C229.579 27.5024 232.118 27.5666 233.316 27.9687C236.075 28.8973 238.696 30.346 240.966 32.1637C241.722 32.771 243.849 34.2198 243.849 35.2872C243.849 36.1494 242.006 37.0883 241.38 37.507C239.581 38.707 237.621 39.7185 235.592 40.4646C234.69 40.7942 233.09 40.9641 232.408 41.6605C231.575 42.5103 232.149 44.9415 232.016 46.0587C231.538 50.1127 229.459 53.5595 228.769 57.4312C231.888 58.4282 235.264 58.8489 238.487 58.0717C249.586 55.398 252.233 42.272 246.272 33.654C244.145 30.5782 240.431 28.0951 237.04 26.5966C235.73 26.0163 232.199 25.5106 231.465 24.3043C230.715 23.0711 231.283 20.3891 231.249 18.9756C231.187 16.476 230.491 13.852 229.598 11.5327L227.32 12.5608Z" fill="#FFC72F"/>
<path d="M37.1038 46.2618C40.0262 44.9664 42.59 43.9155 44.6461 41.2999C49.295 35.3929 48.6421 25.2017 42.8927 20.273C34.9897 13.4955 21.5072 15.8686 11.8798 15.8686H4.64218C3.52917 15.8686 2.29596 15.7111 1.34462 16.4158C-0.531118 17.8086 0.300009 22.0637 0.300009 24.1385V69.6245C0.300009 71.9624 -0.599515 76.7108 0.716608 78.7006C2.07626 80.7587 7.62885 79.7555 9.81133 79.7555H26.1458C30.2765 79.7555 34.3928 79.94 38.3453 78.5037C42.3538 77.0466 45.7487 74.4496 47.7924 70.6567C52.9408 61.1018 47.7571 48.7033 37.1038 46.2618ZM11.4653 24.7602H23.6648C26.7074 24.7602 29.8309 24.6898 32.5543 26.2795C37.8748 29.3822 37.081 38.6821 31.9346 41.5279C29.4288 42.9124 26.6266 42.7486 23.8721 42.7486H11.4653V24.7602ZM33.5886 69.5685C30.6475 71.0401 27.4743 70.8639 24.2845 70.8639H11.4653V50.6019H24.0773C27.4059 50.6019 30.8009 50.521 33.7959 52.2309C40.0822 55.8208 40.192 66.2648 33.5886 69.5685ZM64.2615 16.9257C63.4345 15.8479 62.1101 15.8686 60.881 15.8686H53.6455V74.1739C53.6455 75.5771 53.2434 77.7202 54.1927 78.885C54.9865 79.8571 56.2383 79.7555 57.3659 79.7555H64.8087V21.8648C64.8087 20.3828 65.2232 18.1755 64.2615 16.9257ZM124.372 39.2314C123.535 34.2115 121.665 29.1832 118.473 25.1727C111.511 16.422 101.567 15.8686 91.2742 15.8686H76.8009C75.0765 15.8686 72.5313 15.3712 71.323 16.9236C70.4048 18.1071 70.8048 20.2523 70.8048 21.6575V79.7555H91.4814C96.1117 79.7555 100.796 80.0747 105.335 79.0011C122.755 74.8786 126.921 54.5088 124.372 39.2314ZM111.88 59.2883C110.751 62.8117 108.842 66.0865 105.747 68.2255C99.3367 72.6609 89.3508 70.866 81.9701 70.866V24.7602C89.3736 24.7602 99.3284 23.0337 105.747 27.5396C114.778 33.8778 114.929 49.7624 111.88 59.2883ZM186.51 16.5194C186.282 15.336 182.553 15.8686 181.627 15.8686C177.11 15.8686 171.483 14.8966 168.697 19.3838C165.622 24.3395 164.376 31.2331 162.535 36.7504C158.935 47.5489 154.937 58.2561 151.853 69.212C150.643 66.0098 149.917 62.5485 148.821 59.2883C145.646 49.8495 142.462 40.4107 139.31 30.9636C138.228 27.7179 137.088 24.4908 136.002 21.2451C135.467 19.6408 135.119 17.6677 133.655 16.6231C131.029 14.7515 125.187 15.8686 122.082 15.8686C122.834 20.8886 125.514 26.1613 127.18 30.9616C130.98 41.9051 134.822 52.8465 138.485 63.8356C139.66 67.3591 140.831 70.9012 142.128 74.3812C142.916 76.4953 143.797 78.4892 146.066 79.3244C148.939 80.3794 152.761 79.7555 155.785 79.7555C156.691 79.7555 158.421 80.0851 159.194 79.5421C160.09 78.914 160.417 76.8186 160.747 75.8258C161.808 72.6422 162.994 69.4981 164.055 66.3145C168.04 54.3575 172.144 42.3839 176.47 30.545C177.763 27.0049 179.253 22.9799 182.248 20.5093C183.305 19.6408 186.841 18.2252 186.51 16.5194Z" fill="white"/>
<path d="M225.666 52.6704C223.191 51.1243 220.977 48.8651 219.328 46.467C218.675 45.5178 217.738 42.9125 216.693 42.4606C215.342 41.8762 211.991 43.982 210.571 44.3695C206.465 45.4929 202.72 45.1343 198.579 44.6079C199.198 41.6067 200.508 38.7361 202.094 36.1308C202.745 35.0613 204.475 33.4861 204.479 32.2032C204.486 30.6155 202.131 28.2362 201.358 26.8268C199.772 23.9375 198.995 20.7311 198.373 17.5227C196.209 17.7134 194.044 19.1477 192.377 20.4617C184.422 26.7231 184.619 38.8004 192.997 44.6659C197.555 47.8557 203.344 48.2744 208.71 47.4122C210.401 47.1407 213.744 45.3478 215.305 45.7727C216.157 46.0049 216.724 47.4474 217.193 48.1231C218.588 50.146 220.244 51.8974 222.149 53.4456C222.675 53.8746 223.626 54.8861 224.379 54.7597C225.152 54.6291 225.485 53.2943 225.666 52.6704Z" fill="#FFC72F"/>
<path d="M224.839 56.6002L217.9 50.6041L214.896 47.0744L209.126 48.4485L198.995 48.5356C198.995 53.0477 200.174 57.3795 203.397 60.6999C210.015 67.5147 220.866 65.8069 226.406 58.6666C229.028 55.2882 230.275 51.0746 230.777 46.8816C230.945 45.4826 230.29 42.0026 231.169 40.9746C232.023 39.9756 234.576 39.7414 235.801 39.2937C238.346 38.3652 240.643 36.8687 242.831 35.3018C242.477 34.5515 241.739 33.5048 240.763 33.6727C239.662 33.8613 238.425 35.0427 237.455 35.5961C235.718 36.5827 233.801 37.2978 231.873 37.8076C231.019 38.0335 228.928 38.0584 228.364 38.7631C227.931 39.302 228.228 40.2741 228.298 40.8834C228.48 42.4213 228.418 44.0919 228.35 45.638C228.167 49.7004 226.36 52.9648 224.839 56.6002Z" fill="#FFC72F"/>
</svg>
