<svg width="30" height="30" viewBox="0 0 30 30" fill="none" xmlns="http://www.w3.org/2000/svg">
<path d="M16.1929 0.993617C15.9398 1.21862 13.9711 5.12565 13.9711 5.12565L12.5062 11.0342L18.2062 10.5116C18.2062 10.5116 22.9476 1.6944 23.0437 1.49049C23.2148 1.12018 23.3062 0.967836 22.6523 0.967836C21.9984 0.965492 16.4297 0.782679 16.1929 0.993617Z" fill="#176CC7"/>
<path d="M19.1437 10.146C18.8601 9.99369 10.507 9.86244 10.3101 10.146C10.132 10.4038 10.2328 11.7562 10.3008 11.9179C10.4226 12.1992 13.1203 13.4249 13.1203 13.4249L13.0687 13.9828C13.0687 13.9828 13.2891 14.039 14.857 14.039C16.425 14.039 16.7344 13.9593 16.7344 13.9593L16.7391 13.4554C16.7391 13.4554 19.1672 12.2742 19.2891 12.1101C19.3922 11.9742 19.4273 10.2984 19.1437 10.146ZM16.657 12.2835C16.657 12.2835 16.7344 11.939 16.5726 11.8593C16.4109 11.7773 13.6359 11.8148 13.4156 11.8265C13.1953 11.8382 13.1953 12.232 13.1953 12.232L11.4469 11.332L11.4141 10.9968L18.0469 11.0437L18.0234 11.3601L16.657 12.2835Z" fill="#F79429"/>
<path d="M13.8891 12.1616C13.6687 12.1616 13.5422 12.3913 13.5422 12.7874C13.5422 13.1577 13.6687 13.4694 13.9476 13.446C14.1773 13.4272 14.257 13.0757 14.2359 12.764C14.2148 12.3913 14.168 12.1616 13.8891 12.1616Z" fill="#FDFFFF"/>
<path d="M6.86951 21.5834C6.86951 27.199 11.9578 29.5358 15.3351 29.435C19.2703 29.3178 23.5031 26.3319 23.1539 20.974C22.8258 15.9467 18.5929 13.6404 14.8945 13.6662C10.5961 13.699 6.86951 16.6779 6.86951 21.5834Z" fill="#F79429"/>
<path d="M15.157 28.5868C15.0984 28.5868 15.0375 28.5868 14.9789 28.5845C13.2211 28.5259 11.4844 27.7853 10.2141 26.5548C8.85468 25.2376 8.10936 23.4563 8.11874 21.5415C8.13983 16.8657 12.2273 14.6978 15 14.6978H15.0234C18.7805 14.7142 21.8648 17.6345 21.9516 21.5931C21.9891 23.3556 21.4266 25.1087 20.0109 26.5009C18.6891 27.7946 16.7766 28.5868 15.157 28.5868ZM14.9953 15.4759C12.5086 15.4759 8.83124 17.5103 8.82186 21.5415C8.81483 24.5556 11.1492 27.654 15.0375 27.7853C16.5187 27.8321 18.1898 27.2837 19.4203 26.0743C20.7 24.8157 21.2742 23.1751 21.2484 21.6048C21.1922 18.1993 18.4078 15.4899 15.0281 15.4759C15.0211 15.4712 15.0023 15.4759 14.9953 15.4759Z" fill="#D25116"/>
<path d="M13.6149 14.4069C13.4531 14.1842 11.7961 14.2475 10.0125 15.7827C8.24065 17.3085 7.9758 18.996 8.29455 19.085C8.65784 19.1858 9.1008 17.5546 10.6313 16.1835C12.0375 14.9296 13.936 14.8499 13.6149 14.4069ZM20.7375 20.5405C20.1727 20.6202 20.7586 22.3124 19.4485 24.2061C18.3117 25.8491 17.0227 26.4444 17.1727 26.8053C17.3742 27.2882 19.4391 26.0858 20.3953 24.1264C21.2602 22.3522 21.1571 20.4796 20.7375 20.5405Z" fill="#FEFFFA"/>
<path d="M5.97892 0.871851C5.83126 1.00779 11.4774 11.0625 11.4774 11.0625C11.4774 11.0625 12.4242 11.1844 14.5383 11.2031C16.6524 11.2219 17.7 11.0812 17.7 11.0812C17.7 11.0812 13.3102 0.972632 13.0477 0.871851C12.9188 0.820288 11.1797 0.801538 9.48048 0.782788C7.77892 0.761694 6.11955 0.740601 5.97892 0.871851Z" fill="#2E9DF4"/>
<path d="M17.5664 19.6196C17.2946 17.2641 14.5524 17.0673 13.4157 17.972C12.3094 18.8532 12.4149 20.0813 13.1907 20.2243C13.8024 20.3368 13.9617 19.8516 14.1399 19.629C14.543 19.1298 15.1852 19.0829 15.6047 19.4837C16.0805 19.9407 15.7875 21.0329 15.0727 21.0774C14.5407 21.1102 14.2711 21.0821 14.2032 21.1735C14.1071 21.3024 14.1211 22.3173 14.2196 22.4298C14.3321 22.5587 14.7821 22.479 15.1688 22.493C15.7008 22.5141 16.2657 23.3016 15.893 23.8923C15.5063 24.504 14.4774 24.2298 14.1071 23.8595C13.6172 23.3696 13.1274 23.6509 12.9633 23.843C12.7055 24.1477 12.4313 24.8415 13.3828 25.5165C14.3321 26.1915 17.2125 26.3204 17.7938 24.2298C18.3 22.404 17.1188 21.654 17.1188 21.654C17.1188 21.654 17.7211 20.9626 17.5664 19.6196Z" fill="#D25116"/>
</svg>
