<svg width="30" height="30" viewBox="0 0 30 30" fill="none" xmlns="http://www.w3.org/2000/svg">
<path d="M16.1929 0.993617C15.9398 1.21862 13.9711 5.12565 13.9711 5.12565L12.5062 11.0342L18.2062 10.5116C18.2062 10.5116 22.9476 1.6944 23.0437 1.49049C23.2148 1.12018 23.3062 0.967836 22.6523 0.967836C21.9984 0.965492 16.4297 0.782679 16.1929 0.993617Z" fill="#176CC7"/>
<path d="M19.1437 10.146C18.8601 9.99369 10.507 9.86244 10.3101 10.146C10.132 10.4038 10.1578 11.5828 10.2445 11.7351C10.3312 11.8874 13.139 13.1929 13.139 13.1929L13.1367 13.6687C13.1367 13.6687 13.2914 14.0413 14.857 14.0413C16.4226 14.0413 16.5843 13.7249 16.5843 13.7249L16.5984 13.2445C16.5984 13.2445 19.057 12.0163 19.1859 11.9085C19.3172 11.7984 19.4273 10.2984 19.1437 10.146ZM16.5703 12.0984C16.5703 12.0984 16.5633 11.7703 16.4015 11.6882C16.2398 11.6062 13.6359 11.6203 13.4156 11.632C13.1953 11.6437 13.1953 12.0374 13.1953 12.0374L11.414 11.1703V10.9968L18.0468 11.0437L18.0586 11.2406L16.5703 12.0984Z" fill="#FFCD32"/>
<path d="M13.8891 11.9932C13.6687 11.9932 13.5422 12.2229 13.5422 12.6189C13.5422 12.9893 13.6687 13.301 13.9476 13.2775C14.1773 13.2588 14.257 12.9072 14.2359 12.5955C14.2148 12.2252 14.168 11.9932 13.8891 11.9932Z" fill="#FDFFFF"/>
<path d="M6.79218 21.2623C6.79218 26.8779 11.8687 29.3787 15.2437 29.2592C18.9656 29.1256 23.4234 26.224 23.1539 20.8662C22.8984 15.7897 18.6281 13.3826 14.9297 13.4084C10.6312 13.4389 6.79218 16.3568 6.79218 21.2623Z" fill="#FFCD32"/>
<path d="M15.1242 28.2821C15.0657 28.2821 15.0047 28.2821 14.9461 28.2798C13.1883 28.2212 11.4516 27.4806 10.1813 26.2501C8.8219 24.9329 8.07659 23.1517 8.08596 21.2368C8.10706 16.561 12.1946 14.3931 14.9672 14.3931H14.9907C18.7477 14.4095 21.8321 17.3298 21.9188 21.2884C21.9563 23.0509 21.2344 24.9001 19.8188 26.2923C18.4969 27.5884 16.7438 28.2821 15.1242 28.2821ZM14.9625 15.1712C12.4758 15.1712 8.79846 17.2056 8.78909 21.2368C8.78206 24.2509 11.1164 27.3493 15.0047 27.4806C16.486 27.5274 18.0117 26.9603 19.2446 25.7485C20.5242 24.4899 21.2438 22.8681 21.218 21.2978C21.1617 17.8923 18.3774 15.1829 14.9977 15.1688C14.9883 15.1688 14.9696 15.1712 14.9625 15.1712Z" fill="#FA912C"/>
<path d="M13.5516 14.2056C13.3899 13.9829 11.557 14.0251 9.82501 15.7173C8.15392 17.3509 7.97345 18.8907 8.29454 18.9798C8.65782 19.0806 9.10079 17.4493 10.6313 16.0782C12.0375 14.822 13.875 14.6485 13.5516 14.2056ZM20.6414 20.2689C20.0766 20.3485 20.6625 22.0407 19.3524 23.9345C18.2156 25.5774 16.9266 26.1728 17.0766 26.5337C17.2781 27.0165 19.343 25.8142 20.2992 23.8548C21.1664 22.0806 21.0633 20.2079 20.6414 20.2689Z" fill="#FEFFFA"/>
<path d="M13.0898 18.0515C12.968 18.232 13.0781 19.814 13.1508 19.8843C13.2914 20.0249 14.3601 19.521 14.3601 19.521L14.3203 23.7515C14.3203 23.7515 13.5351 23.7421 13.4531 23.7726C13.2914 23.8335 13.3125 25.4648 13.432 25.5445C13.5516 25.6242 16.7555 25.6664 16.8773 25.5046C16.9992 25.3429 16.9687 23.9156 16.9125 23.8499C16.8117 23.7281 16.0453 23.7773 16.0453 23.7773C16.0453 23.7773 16.1109 17.5476 16.0898 17.3484C16.0687 17.1492 15.8484 17.0249 15.5859 17.0859C15.3234 17.1468 13.1672 17.9343 13.0898 18.0515Z" fill="#FA912C"/>
<path d="M5.97892 0.871851C5.83126 1.00779 11.4774 11.0625 11.4774 11.0625C11.4774 11.0625 12.4242 11.1844 14.5383 11.2031C16.6524 11.2218 17.7 11.0812 17.7 11.0812C17.7 11.0812 13.3102 0.972632 13.0477 0.871851C12.9188 0.820288 11.1797 0.801538 9.48048 0.782788C7.77892 0.761694 6.11955 0.740601 5.97892 0.871851Z" fill="#2E9DF4"/>
</svg>
