<svg width="30" height="30" viewBox="0 0 30 30" fill="none" xmlns="http://www.w3.org/2000/svg">
<path d="M16.1929 0.993617C15.9398 1.21862 13.9711 5.12565 13.9711 5.12565L12.5062 11.0342L18.2062 10.5116C18.2062 10.5116 22.9476 1.6944 23.0437 1.49049C23.2148 1.12018 23.3062 0.967836 22.6523 0.967836C21.9984 0.965492 16.4297 0.782679 16.1929 0.993617Z" fill="#176CC7"/>
<path d="M19.1437 10.146C18.8601 9.99369 10.507 9.86244 10.3101 10.146C10.132 10.4038 10.2328 11.7562 10.3008 11.9179C10.4226 12.1992 13.1203 13.4249 13.1203 13.4249L13.0687 13.9828C13.0687 13.9828 13.2891 14.039 14.857 14.039C16.425 14.039 16.7344 13.9593 16.7344 13.9593L16.7391 13.4554C16.7391 13.4554 19.1672 12.2742 19.2891 12.1101C19.3922 11.9742 19.4273 10.2984 19.1437 10.146ZM16.657 12.2835C16.657 12.2835 16.7344 11.939 16.5726 11.8593C16.4109 11.7773 13.6359 11.8148 13.4156 11.8265C13.1953 11.8382 13.1953 12.232 13.1953 12.232L11.4141 11.1703V10.9968L18.0469 11.0437L18.0586 11.2406L16.657 12.2835Z" fill="#CECDD2"/>
<path d="M13.8891 11.9932C13.6687 11.9932 13.5422 12.2229 13.5422 12.6189C13.5422 12.9893 13.6687 13.301 13.9476 13.2775C14.1773 13.2588 14.257 12.9072 14.2359 12.5955C14.2148 12.2252 14.168 11.9932 13.8891 11.9932Z" fill="#FDFFFF"/>
<path d="M6.78986 21.5365C6.78986 27.1522 11.9578 29.5358 15.3352 29.435C19.2703 29.3178 23.4235 26.3319 23.1539 20.974C22.8985 15.8975 18.593 13.6405 14.8945 13.6662C10.5961 13.699 6.78986 16.6311 6.78986 21.5365Z" fill="#CECDD2"/>
<path d="M15.1242 28.39C15.0657 28.39 15.0047 28.39 14.9461 28.3877C13.1883 28.3291 11.4516 27.5885 10.1813 26.358C8.8219 25.0408 8.07659 23.2596 8.08596 21.3447C8.10706 16.6689 12.1946 14.501 14.9672 14.501H14.9907C18.7477 14.5174 21.8321 17.4377 21.9188 21.3963C21.9563 23.1588 21.2344 25.008 19.8188 26.4002C18.4969 27.6963 16.7438 28.39 15.1242 28.39ZM14.9625 15.2791C12.4758 15.2791 8.79846 17.3135 8.78909 21.3447C8.78206 24.3588 11.1164 27.4572 15.0047 27.5885C16.486 27.6354 18.0117 27.0682 19.2446 25.8564C20.5242 24.5979 21.2438 22.976 21.218 21.4057C21.1571 18.0002 18.3727 15.2908 14.993 15.2744C14.9883 15.2744 14.9696 15.2791 14.9625 15.2791Z" fill="#9B9B9D"/>
<path d="M13.6149 14.4069C13.4531 14.1842 11.7961 14.2475 10.0125 15.7827C8.24065 17.3085 7.9758 18.996 8.29455 19.085C8.65784 19.1858 9.1008 17.5546 10.6313 16.1835C12.0375 14.9296 13.936 14.8499 13.6149 14.4069ZM20.5969 20.5592C20.0321 20.6389 20.618 22.3311 19.3078 24.2249C18.1711 25.8678 16.8821 26.4631 17.0321 26.8241C17.2336 27.3069 19.2985 26.1046 20.2547 24.1452C21.1196 22.3733 21.0164 20.5007 20.5969 20.5592Z" fill="#FEFFFA"/>
<path d="M5.97892 0.871851C5.83126 1.00779 11.4774 11.0625 11.4774 11.0625C11.4774 11.0625 12.4242 11.1844 14.5383 11.2031C16.6524 11.2219 17.7 11.0812 17.7 11.0812C17.7 11.0812 13.3102 0.972632 13.0477 0.871851C12.9188 0.820288 11.1797 0.801538 9.48048 0.782788C7.77892 0.761694 6.11955 0.740601 5.97892 0.871851Z" fill="#2E9DF4"/>
<path d="M13.3242 20.2385C13.5679 20.2408 13.7859 19.9103 13.9875 19.7088C14.4164 19.2775 14.8664 18.9353 15.3797 19.3994C16.6406 20.5455 14.1093 21.708 13.1484 23.2971C12.4312 24.483 12.2859 25.3947 12.4851 25.6385C12.6843 25.8822 17.5336 25.8705 17.5992 25.7486C17.6648 25.6267 17.7328 24.0025 17.6203 23.9252C17.5078 23.8478 15.1242 23.8924 15.1242 23.8924C15.1242 23.8924 15.3234 23.4283 16.1414 22.7205C17.039 21.9447 17.7586 20.8783 17.5664 19.6174C17.1679 17.0111 14.5429 16.915 13.4062 17.8221C12.2976 18.7056 12.5367 20.2291 13.3242 20.2385Z" fill="#9B9B9D"/>
</svg>
